<svg xmlns="http://www.w3.org/2000/svg" width="512" height="512" viewBox="0 0 512 512" data-svgdocument="" id="_-41ClIKq6XW39CYxr-pIC" class="fl-svgdocument" x="0" y="0" style="overflow: visible;" xmlns:xlink="http://www.w3.org/1999/xlink"><defs id="_wWlnlSQh9dQmHbxuC2M8Y" transform="matrix(1.0864101648330688, 0, 0, 1.0864101648330688, -26.43541145324707, -30.619749069213867)"></defs><g id="_G14jFCKViZAJnLw4igdwf" transform="matrix(1.6401946544647217, 0, 0, 1.6401946544647217, -169.17760477444426, -24.19817239205622)" fill="#283644"><path id="_kPvySYbcbvZC_SmoAc0V3" d="M122 37c14,3 27,7 41,10 -12,-16 -24,-33 -41,-47 -4,12 -4,24 0,37z" stroke="none" fill="#283644" transform="matrix(0.6448413729667664, 0, 0, 0.6448413729667664, 178.3170623779297, 72.73651885986328)"></path><path id="_qxoZc-gt2-n8tWJBUsaFc" d="M51 100c-4,1 -9,1 -14,-1 18,-7 25,-28 42,-37 -12,-12 -18,-30 -18,-53 21,8 41,18 58,30 21,7 42,13 63,19 0,0 12,20 15,28 2,9 17,23 17,23 10,5 20,9 29,14 14,4 10,4 5,19 -11,11 -16,8 -24,12 2,3 2,5 -2,7 -18,5 -39,-7 -57,-14 -28,14 5,55 19,64 -7,6 -21,9 -32,7 0,10 11,25 19,33 -20,-1 -31,-7 -40,-13 1,15 10,28 23,39 -44,0 -45,-25 -39,-68 9,11 24,28 37,27 -8,-13 -11,-21 -12,-36 5,5 14,15 24,8 -10,-18 -34,-56 0,-70 13,-5 32,15 45,10 -7,-5 -7,-20 23,-14 -22,-17 -37,2 -49,0 -35,-5 -28,-20 -46,-34 -11,-9 -38,-8 -38,-8 7,2 13,4 20,6 -20,4 -35,13 -49,26 10,-6 19,-10 31,-11 -12,8 -18,18 -20,30 7,-8 19,-26 27,-18 8,9 -5,30 4,36 7,4 16,-11 24,-14 -8,9 -15,32 -25,25 -6,-5 -14,-15 -13,-30 -23,22 -32,30 -51,81 7,-7 13,-13 20,-20 -30,76 35,74 35,102 -54,-19 -103,-60 -102,-149 23,20 24,-21 51,-56zm18 -77c0,14 9,23 17,30 0,-4 -3,-7 -3,-11 3,1 9,4 11,6 -1,-4 -5,-8 -6,-12 6,2 13,3 18,6 -10,-9 -24,-16 -37,-19zm91 58c3,0 9,1 15,3 0,3 -1,8 1,9 4,-1 6,-5 6,-5 1,3 2,5 1,9 0,0 -11,-5 -12,-6 -2,-1 -11,-10 -11,-10z" stroke="none" fill="#283644" transform="matrix(0.6448413729667664, 0, 0, 0.6448413729667664, 177.7755889892578, 72.25138092041016)"></path></g></svg>
