<svg xmlns="http://www.w3.org/2000/svg" width="512" height="512" viewBox="0 0 512 512" data-svgdocument="" id="_-41ClIKq6XW39CYxr-pIC" class="fl-svgdocument" x="0" y="0" style="overflow: visible;" xmlns:xlink="http://www.w3.org/1999/xlink">
  <defs id="_wWlnlSQh9dQmHbxuC2M8Y" transform="matrix(1.0864101648330688, 0, 0, 1.0864101648330688, -26.43541145324707, -30.619749069213867)"></defs>
  <g id="_G14jFCKViZAJnLw4igdwf" transform="matrix(0.8827081918716431, 0, 0, 0.8827081918716431, 27.180967330932617, 53.199485778808594)" fill="#283644">
    <path id="_kPvySYbcbvZC_SmoAc0V3" d="M122 37c14,3 27,7 41,10 -12,-16 -24,-33 -41,-47 -4,12 -4,24 0,37z" stroke="none" fill="#283644" transform="matrix(0.6448413729667664, 0, 0, 0.6448413729667664, 178.3170623779297, 72.73651885986328)"></path>
    <path id="_qxoZc-gt2-n8tWJBUsaFc" d="M51 100c-4,1 -9,1 -14,-1 18,-7 25,-28 42,-37 -12,-12 -18,-30 -18,-53 21,8 41,18 58,30 21,7 42,13 63,19 0,0 12,20 15,28 2,9 17,23 17,23 10,5 20,9 29,14 14,4 10,4 5,19 -11,11 -16,8 -24,12 2,3 2,5 -2,7 -18,5 -39,-7 -57,-14 -28,14 5,55 19,64 -7,6 -21,9 -32,7 0,10 11,25 19,33 -20,-1 -31,-7 -40,-13 1,15 10,28 23,39 -44,0 -45,-25 -39,-68 9,11 24,28 37,27 -8,-13 -11,-21 -12,-36 5,5 14,15 24,8 -10,-18 -34,-56 0,-70 13,-5 32,15 45,10 -7,-5 -7,-20 23,-14 -22,-17 -37,2 -49,0 -35,-5 -28,-20 -46,-34 -11,-9 -38,-8 -38,-8 7,2 13,4 20,6 -20,4 -35,13 -49,26 10,-6 19,-10 31,-11 -12,8 -18,18 -20,30 7,-8 19,-26 27,-18 8,9 -5,30 4,36 7,4 16,-11 24,-14 -8,9 -15,32 -25,25 -6,-5 -14,-15 -13,-30 -23,22 -32,30 -51,81 7,-7 13,-13 20,-20 -30,76 35,74 35,102 -54,-19 -103,-60 -102,-149 23,20 24,-21 51,-56zm18 -77c0,14 9,23 17,30 0,-4 -3,-7 -3,-11 3,1 9,4 11,6 -1,-4 -5,-8 -6,-12 6,2 13,3 18,6 -10,-9 -24,-16 -37,-19zm91 58c3,0 9,1 15,3 0,3 -1,8 1,9 4,-1 6,-5 6,-5 1,3 2,5 1,9 0,0 -11,-5 -12,-6 -2,-1 -11,-10 -11,-10z" stroke="none" fill="#283644" transform="matrix(0.6448413729667664, 0, 0, 0.6448413729667664, 177.7755889892578, 72.25138092041016)"></path>
  </g>
<!--  <path id="_V9lR3NCRBj5qjOWV_BSsV" fill="#283644" transform="matrix(0.9188302159309387, 0, 0, 1.0057827234268188, 257.37823486328125, 389.75103759765625)" text="Blog" text-anchor="middle" font-size="100" letter-spacing="0" side="left" offset="0.5" dx="0" dy="0" space="preserve" href="" font-family="Bree Serif" font-scale="contain" x="0" y="0" data-fl-textpath="" font-weight="400" font-style="normal" d="M-94.69999999999999-58L-94.69999999999999-66.5L-66.5-66.5Q-44.89999999999999-66.5 -44.89999999999999-49.8L-44.89999999999999-49.8Q-44.89999999999999-40.6 -54.099999999999994-35.8L-54.099999999999994-35.8Q-48.199999999999996-34.3 -44.849999999999994-30.3Q-41.49999999999999-26.3 -41.49999999999999-19.9L-41.49999999999999-19.9Q-41.49999999999999-10.2 -48.05-5.1Q-54.599999999999994 0 -67.1 0L-67.1 0L-95.19999999999999 0L-95.19999999999999-8.1L-91.89999999999999-8.4Q-89-8.7 -89-11.2L-89-11.2L-89-57.7L-94.69999999999999-58ZM-66.89999999999999-30.3L-76.8-30.3L-76.8-9.4L-67.39999999999999-9.4Q-54.39999999999999-9.4 -54.39999999999999-20L-54.39999999999999-20Q-54.39999999999999-25 -57.64999999999999-27.65Q-60.89999999999999-30.3 -66.89999999999999-30.3L-66.89999999999999-30.3ZM-68.69999999999999-57.3L-76.8-57.3L-76.8-39.2L-69.39999999999999-39.2Q-63.199999999999996-39.2 -60.24999999999999-41.75Q-57.3-44.3 -57.3-48.9Q-57.3-53.5 -60.24999999999999-55.4Q-63.199999999999996-57.3 -68.69999999999999-57.3L-68.69999999999999-57.3ZM-35.10000000000001-71.3L-17.200000000000006-71.3L-17.200000000000006-8.3L-11.500000000000007-8L-11.500000000000007 0L-35.300000000000004 0L-35.300000000000004-7.6L-32.00000000000001-7.9Q-29.100000000000005-8.2 -29.100000000000005-11.1L-29.100000000000005-11.1L-29.100000000000005-60.4Q-29.100000000000005-62.6 -31.600000000000005-62.8L-31.600000000000005-62.8L-35.10000000000001-63L-35.10000000000001-71.3ZM 17.699999999999996-7.3L 17.699999999999996-7.3Q 28.599999999999998-7.3  28.599999999999998-24.9L 28.599999999999998-24.9Q 28.599999999999998-33.8  26.149999999999995-38.4Q 23.699999999999992-43  17.949999999999996-43Q 12.199999999999996-43  9.499999999999996-38.6Q 6.799999999999995-34.2  6.799999999999995-26.6L 6.799999999999995-26.6Q 6.799999999999995-12.5  11.999999999999996-8.9L 11.999999999999996-8.9Q 14.299999999999994-7.3  17.699999999999996-7.3ZM-5.300000000000005-25.2L-5.300000000000005-25.2Q-5.300000000000005-32.6 -3.100000000000005-38.05Q-0.9000000000000048-43.5  2.7999999999999954-46.4L 2.7999999999999954-46.4Q 9.899999999999995-51.8  18.499999999999996-51.8L 18.499999999999996-51.8Q 24.499999999999996-51.8  28.649999999999995-49.85Q 32.8-47.9  35.14999999999999-45.35Q 37.5-42.8  39.14999999999999-37.95Q 40.8-33.1  40.8-26.5L 40.8-26.5Q 40.8-12.7  34.099999999999994-5.6Q 27.399999999999995 1.5  16.949999999999996 1.5Q 6.499999999999995 1.5  0.5999999999999943-5.25Q-5.300000000000005-12 -5.300000000000005-25.2ZM 92-0.1Q 91.1 11  85.6 16.2Q 80.1 21.4  68.4 21.4Q 56.7 21.4  50.1 18.1L 50.1 18.1L 50.1 4.2L 59.6 3.4L 59.6 8.2Q 59.6 10.9  62.1 11.85Q 64.6 12.8  69 12.8L 69 12.8Q 75.4 12.8  78 8.95Q 80.6 5.1  80.6-1.9L 80.6-1.9L 80.6-7.4Q 75.80000000000001-1.8  67.30000000000001-1.8L 67.30000000000001-1.8Q 62.1-1.8  58.150000000000006-3.8Q 54.2-5.8  52-9.2L 52-9.2Q 47.7-16  47.7-25.2L 47.7-25.2Q 47.7-38.3  54.800000000000004-45.05Q 61.900000000000006-51.8  73.7-51.8L 73.7-51.8Q 83.5-51.8  92.2-48.1L 92.2-48.1L 92.2-11Q 92.2-2.5  92-0.1L 92-0.1ZM 80.6-20.4L 80.6-20.4L 80.6-41.9Q 77.1-43.1  72.6-43.1L 72.6-43.1Q 66.5-43.1  63.25-38.6Q 60-34.1  60-26.4L 60-26.4Q 60-10.6  70.4-10.6L 70.4-10.6Q 74.7-10.6  77.65-13.25Q 80.6-15.9  80.6-20.4Z"></path>-->
</svg>
