<?xml version="1.0" standalone="no"?><!DOCTYPE svg PUBLIC "-//W3C//DTD SVG 1.1//EN" "http://www.w3.org/Graphics/SVG/1.1/DTD/svg11.dtd"><svg t="1613645531076" class="icon" viewBox="0 0 1024 1024" version="1.1" xmlns="http://www.w3.org/2000/svg" p-id="16684" xmlns:xlink="http://www.w3.org/1999/xlink" width="64" height="64"><defs><style type="text/css"></style></defs><path d="M610.4 224.6l-122-70.5 0.2 1.1 121 69.9c0.3-0.2 0.5-0.4 0.8-0.5zM613.8 226.5c-0.2 0.2-0.4 0.4-0.7 0.6l215.3 124.3 0.4 132.1c10.2 1 17.6-10.3 20.5-24.9l-19.2-107.2-216.3-124.9z" fill="#E2E2E2" p-id="16685"></path><path d="M489.9 366.4c0.7-0.5 1.9-0.3 2.4 0.3 0.5 0.7 0.3 1.9-0.3 2.4-1.2 0.9-2.3 1.8-3.5 2.7l0.5 174.3-1.2 0.5 2.7 1.2 29.3-17c-2.9 1.1-5.8 2.2-8.7 3.4 0 0.3-0.2 0.3-0.6 0.3-0.7 0-1.4-0.5-1.6-1.2-0.3-0.9 0.2-1.9 1-2.3 7-2.6 13.6-5.2 19.9-7.9 0.8-0.3 1.7 0 2.1 0.7l68.1-39.6c-0.1-0.1-0.2-0.1-0.3-0.2-0.7-0.7-0.7-1.7 0-2.4 5.4-5.8 9.3-11.5 11.4-17.1 0.3-0.9 1.4-1.4 2.3-1 0.9 0.3 1.4 1.4 1 2.3-2 5.2-5.2 10.4-9.7 15.7l108.6-63.1 115.1-66.9-215.3-124.4c-6.5 3.5-12.6 7.2-18.4 10.8-0.2 0.4-0.6 0.4-0.9 0.4-0.5 0-1.2-0.3-1.4-0.9-0.5-0.9-0.3-1.9 0.5-2.4 5.2-3.3 10.9-6.6 16.7-9.9l-121-69.9-0.7-0.4 0.6 212.7c0.5-0.3 0.9-0.7 1.4-1.1z m183.2-29.1c3.5 0.5 6.8 0.9 10.5 1.4 0.9 0.2 1.6 1 1.4 1.9-0.1 0.9-0.8 1.6-1.7 1.6h-0.2c-3.5-0.5-7-1-10.3-1.4-0.9-0.2-1.6-1-1.6-1.9 0.2-0.9 1-1.6 1.9-1.6z m-53-3.9c7 0.2 14.3 0.5 21.9 1 1 0 1.7 0.9 1.6 1.9 0 0.7-0.7 1.4-1.6 1.4-7.5-0.5-14.7-0.9-21.9-0.9-1 0-1.7-0.9-1.7-1.7 0-1 0.9-1.7 1.7-1.7z m-26.4 85.1c0.7-0.7 1.7-0.9 2.4-0.2 6.3 5.4 11.2 11 14.5 16.4 0.5 0.9 0.2 1.9-0.5 2.4-0.1 0.4-0.4 0.4-0.8 0.4-0.5 0-1.2-0.3-1.6-0.9-3.1-5.2-7.7-10.5-13.8-15.7-0.7-0.7-0.9-1.7-0.2-2.4z m-4.4-84.3c1 0 1.7 0.7 1.9 1.6 0 1-0.7 1.7-1.6 1.9-4.6 0.3-9.1 0.8-13.6 1.4-2.7 0.3-5.3 0.7-7.9 1 0-0.2-0.2-0.2-0.2-0.2-0.9 0-1.6-0.7-1.7-1.4-0.2-0.9 0.5-1.9 1.4-1.9 1.1-0.2 2.2-0.3 3.3-0.5 6-0.7 12.2-1.5 18.4-1.9z m-37-65.9c4.5-5.1 9.8-10.1 15.6-15 0.7-0.7 1.9-0.5 2.4 0.2 0.7 0.7 0.5 1.9-0.2 2.4-5.6 4.7-10.8 9.8-15.2 14.7-0.1 0.4-0.7 0.6-1.2 0.6-0.3 0-0.9-0.2-1.2-0.5-0.7-0.7-0.7-1.7-0.2-2.4z m-0.3 120.1c0.7-0.7 1.7-0.7 2.4 0 5.1 5.1 10.8 9.3 16.8 12.8 0.9 0.5 1 1.6 0.7 2.4-0.5 0.4-1 0.7-1.7 0.7-0.3 0-0.5 0-0.9-0.2-6.1-3.7-12.1-8-17.3-13.3-0.7-0.7-0.7-1.7 0-2.4z m-24.6-74.2c0.2-1 0.5-1.9 0.7-2.9 1.6-5.9 3.8-11.8 6.8-17.6 0.5-0.9 1.6-1.2 2.3-0.7 0.9 0.5 1.2 1.6 0.7 2.3-3 5.9-5.3 11.8-6.8 17.9-0.2 0.6-0.3 1.3-0.4 1.9-0.1 0.5-0.8 1.2-1.6 1.2h-0.3c-0.9-0.2-1.6-1.2-1.4-2.1z m-10.6 36.6c3.3-1.5 6.8-2.9 10.3-4.2l-0.3-1.5c-0.2-0.9 0.5-1.9 1.4-2.1s1.9 0.5 2.1 1.4c0.1 0.3 0.1 0.7 0.2 1 2.3-0.8 4.6-1.6 6.9-2.3 0.9-0.3 1.9 0.2 2.1 1.2 0.3 0.9-0.2 1.9-1.2 2.1-2.4 0.7-4.7 1.5-7.1 2.3 1.3 5.3 3.2 10.5 5.7 15.6 0.3 0.9 0 1.9-0.9 2.3-0.1 0.1-0.5 0.3-0.6 0.3-0.7 0-1.2-0.3-1.6-1-2.6-5.1-4.5-10.5-5.9-16-3.3 1.3-6.6 2.6-9.7 4-0.3 0.2-0.5 0.2-0.7 0.2-0.7 0-1.2-0.3-1.6-1-0.3-0.9 0-1.9 0.9-2.3z" fill="#E5E5E5" p-id="16686"></path><path d="M909.5 281.8c-2.6 2-4.6 4-6.9 5.2-2.5 1.3-3.4 3.1-4 5.6-2.3 9.7-6.3 18.5-14.4 24.9-0.2 0.1-0.2 0.5-0.3 0.9 21.4-1.2 26.7-21.6 25.6-36.6zM970.2 785.6c-8.1-8-15.1-17.5-21.5-27-3.8-5.2-6.1-5.7-12-3.2-8.7 3.6-18.4 6.8-27.7 7-14.5 0.4-29-1.7-44.4-3 11.3 21 25.6 38.7 46.9 49.7 3.3 1.6 7.2 2.9 10.6 2.7 6.8-0.5 13.6-1.8 20.2-3.4 5.8-1.4 9.9-0.9 13.8 4.3 2.4 3.1 7.2 6.5 10.6 6.3 17.7-1.2 34.5-6.1 50.4-14.3-18.5-0.1-34.2-6.6-46.9-19.1zM148.5 214.3c-7.3-2.3-30.1-16.7-30.1-35.7 0 0-9.7 35.6-32.3 38.8 0 0 25.9 9.7 32.3 35.6 0.1 0 3.2-36.7 30.1-38.7zM150.8 214.2c-0.8 0-1.5 0-2.2 0.1 1.3 0.4 2.2 0.4 2.2-0.1zM170.8 114.7s0-12.9 12.9-12.9c0.2-3.2-12.9-9.6-12.9-16.2 0 0-3.3 12.9-12.9 16.2 0 0 9.7 3.3 12.9 12.9z" fill="#E2E2E2" p-id="16687"></path><path d="M147.4 351.4v0.8l0.2-0.9zM147.9 503.7l0.6 188.4 0.6-187.7zM149.6 351.4l283.2 163.5c-0.1-2.3-0.3-4.5-0.4-6.8 0-1 0.7-1.7 1.7-1.7s1.7 0.7 1.7 1.7c0.1 2.9 0.3 5.9 0.5 8.9l42.9 24.8 2.1-0.6c0.9-0.3 1.9 0.2 2.3 1 0.2 0.7 0 1.4-0.5 1.9l3.6 2.1 0.4 0.2 0.6 0.4h0.1l1.2-0.5-0.5-174.3c-0.4 0.3-0.9 0.7-1.3 1-4 3.2-7.8 6.7-11.3 10.5-0.5 0.4-1.1 0.5-1.4 0.5-0.5 0-0.9-0.2-1.2-0.5-0.7-0.7-0.7-1.7 0-2.4 4.3-4.4 9-8.6 13.9-12.4 0.4-0.3 0.8-0.7 1.3-1l-0.6-212.7-339.4 196 1.1 0.4z m295.2 74c2.8-7 5.9-13.6 9.6-19.8 0.5-0.9 1.6-1 2.4-0.7 0.9 0.5 1 1.6 0.7 2.4-3.5 6.1-6.6 12.6-9.3 19.4-0.5 0.9-1 1.2-1.7 1.2-0.2 0-0.3 0-0.7-0.2-0.9-0.3-1.4-1.4-1-2.3z m-8.5 30.2c0.2-0.9 1-1.6 2.1-1.4 0.9 0.2 1.6 1 1.4 2.1-1.4 6.8-2.3 14-3 21.3-0.3 0.9-1 1.6-1.8 1.6-1-0.2-1.7-0.9-1.7-1.9 0.7-7.5 1.7-14.9 3-21.7z" fill="#F9F9F9" p-id="16688"></path><path d="M487.7 546.7l-0.6-0.4-0.4-0.2-3.6-2.1 3.6 2.1 0.1 0.1 0.9 0.5 1.8 1.1-22.6 101.9c-3.5 17.6-13.5 30.4-27.1 22.6L335.4 612 149.1 504.4l-0.6 187.7L489 888.7l1.1-340.7-2.4-1.3zM436.3 517l42.9 24.8h0.1l-43-24.8zM149.6 351.4L432.8 515 149.6 351.4z" fill="#E8E8E8" p-id="16689"></path><path d="M711.3 178.6v13l57.2-21.8z" fill="#E2E2E2" p-id="16690"></path><path d="M711.3 178.6l57.2-8.8-57.2 21.8-17.3 6.5 28 38.5 106-89.4-192.4-12.4 42.1 49z" fill="#EDEDED" p-id="16691"></path><path d="M699.7 189.5c-0.4-0.8-1.4-1.3-2.3-1-3.4 1.2-6.7 2.3-10 3.3-0.8 0.4-1.3 1.4-1 2.3 0.2 0.7 0.9 1.2 1.6 1.2 0.2 0 0.4 0 0.5-0.2 3.4-1.2 6.7-2.3 10-3.3 1-0.4 1.5-1.4 1.2-2.3zM529.8 523c-6.3 2.7-12.9 5.3-19.9 7.9-0.8 0.4-1.3 1.4-1 2.3 0.2 0.7 0.9 1.2 1.6 1.2 0.4 0 0.6 0 0.6-0.3 3-1.1 5.9-2.3 8.7-3.4l12.1-7.1c-0.4-0.6-1.3-0.8-2.1-0.6zM569.3 404.1c0.4 0.2 0.6 0.2 0.9 0.2 0.7 0 1.2-0.3 1.7-0.7 0.3-0.8 0.2-1.9-0.7-2.4-6-3.5-11.7-7.7-16.8-12.8-0.7-0.7-1.7-0.7-2.4 0s-0.7 1.7 0 2.4c5.2 5.3 11.2 9.6 17.3 13.3zM528.8 316.3h0.3c0.8 0 1.5-0.7 1.6-1.2 0.1-0.6 0.3-1.3 0.4-1.9 1.5-6 3.8-12 6.8-17.9 0.5-0.7 0.2-1.8-0.7-2.3-0.7-0.5-1.8-0.2-2.3 0.7-3 5.7-5.2 11.7-6.8 17.6-0.3 1-0.5 2-0.7 2.9-0.2 0.9 0.5 1.9 1.4 2.1zM483.6 542.1c-0.4-0.8-1.4-1.3-2.3-1l-2.1 0.6h-0.1l3.9 2.3c0.6-0.5 0.8-1.2 0.6-1.9zM553.7 271.2c0.5 0 1.1-0.2 1.2-0.6 4.4-4.9 9.6-10 15.2-14.7 0.7-0.5 0.9-1.7 0.2-2.4-0.5-0.7-1.7-0.9-2.4-0.2-5.8 4.9-11.1 9.9-15.6 15-0.5 0.7-0.5 1.7 0.2 2.4 0.3 0.3 0.9 0.5 1.2 0.5zM658.8 202.3c-6.8 2.8-13.6 5.6-19.9 8.4-0.9 0.4-1.2 1.4-0.9 2.3 0.4 0.7 0.9 1 1.6 1 0.2 0 0.5 0 0.7-0.2 6.3-2.8 13-5.6 19.8-8.2 0.8-0.4 1.3-1.4 1-2.3-0.4-0.8-1.4-1.3-2.3-1zM613.4 463.4c-0.9-0.4-2 0.1-2.3 1-2.1 5.6-6 11.3-11.4 17.1-0.7 0.7-0.7 1.7 0 2.4 0.1 0.1 0.2 0.2 0.3 0.2l4.7-2.7c4.5-5.3 7.7-10.5 9.7-15.7 0.4-0.9-0.1-2-1-2.3zM592.9 235c-0.8 0.5-1 1.5-0.5 2.4 0.2 0.6 0.9 0.9 1.4 0.9 0.3 0 0.7 0 0.9-0.4 5.8-3.6 11.9-7.3 18.4-10.8 0.3-0.2 0.5-0.4 0.7-0.6 0.3-0.5 0.4-1.2 0-1.8-0.5-0.9-1.5-1.2-2.4-0.7-0.3 0.2-0.6 0.4-1 0.6-0.3 0.2-0.6 0.3-0.9 0.5-5.7 3.3-11.4 6.6-16.6 9.9zM607.7 436.6c0.4 0.6 1.1 0.9 1.6 0.9 0.4 0 0.7 0 0.8-0.4 0.7-0.5 1-1.5 0.5-2.4-3.3-5.4-8.2-11-14.5-16.4-0.7-0.7-1.7-0.5-2.4 0.2s-0.5 1.7 0.2 2.4c6.1 5.2 10.7 10.5 13.8 15.7zM435 479.2c0.8 0 1.5-0.7 1.8-1.6 0.7-7.3 1.6-14.5 3-21.3 0.2-1.1-0.5-1.9-1.4-2.1-1.1-0.2-1.9 0.5-2.1 1.4-1.3 6.8-2.3 14.2-3 21.7 0 1 0.7 1.7 1.7 1.9zM566.2 338.5c0.1 0.7 0.8 1.4 1.7 1.4 0 0 0.2 0 0.2 0.2 2.6-0.4 5.2-0.7 7.9-1 4.5-0.6 9-1 13.6-1.4 0.9-0.2 1.6-0.9 1.6-1.9-0.2-0.9-0.9-1.6-1.9-1.6-6.2 0.4-12.4 1.1-18.4 1.9-1.1 0.2-2.2 0.3-3.3 0.5-0.9 0-1.6 1-1.4 1.9zM435.8 508.1c0-1-0.7-1.7-1.7-1.7s-1.7 0.7-1.7 1.7c0.1 2.2 0.2 4.5 0.4 6.8l3.6 2.1c-0.3-3-0.5-6-0.6-8.9zM517.5 354.1c0.2 0 0.4 0 0.7-0.2 3.1-1.4 6.4-2.7 9.7-4 1.4 5.5 3.4 10.9 5.9 16 0.4 0.7 0.9 1 1.6 1 0.1 0 0.5-0.2 0.6-0.3 0.9-0.4 1.2-1.4 0.9-2.3-2.4-5-4.4-10.3-5.7-15.6 2.3-0.8 4.7-1.6 7.1-2.3 1-0.2 1.5-1.2 1.2-2.1-0.2-1-1.2-1.5-2.1-1.2-2.3 0.8-4.6 1.5-6.9 2.3-0.1-0.3-0.1-0.7-0.2-1-0.2-0.9-1.2-1.6-2.1-1.4s-1.6 1.2-1.4 2.1l0.3 1.5c-3.5 1.3-7 2.7-10.3 4.2-0.9 0.4-1.2 1.4-0.9 2.3 0.4 0.7 0.9 1 1.6 1zM492.3 366.7c-0.5-0.6-1.7-0.8-2.4-0.3-0.5 0.4-0.9 0.7-1.4 1.1-0.4 0.3-0.8 0.6-1.3 1-4.9 3.9-9.6 8-13.9 12.4-0.7 0.7-0.7 1.7 0 2.4 0.3 0.3 0.7 0.5 1.2 0.5 0.3 0 0.9-0.1 1.4-0.5 3.5-3.8 7.3-7.3 11.3-10.5 0.4-0.3 0.9-0.7 1.3-1 1.2-0.9 2.3-1.8 3.5-2.7 0.6-0.5 0.8-1.7 0.3-2.4zM620.1 336.8c7.2 0 14.4 0.4 21.9 0.9 0.9 0 1.6-0.7 1.6-1.4 0.1-1-0.6-1.9-1.6-1.9-7.6-0.5-14.9-0.8-21.9-1-0.8 0-1.7 0.7-1.7 1.7 0 0.8 0.7 1.7 1.7 1.7zM445.8 427.7c0.4 0.2 0.5 0.2 0.7 0.2 0.7 0 1.2-0.3 1.7-1.2 2.7-6.8 5.8-13.3 9.3-19.4 0.3-0.8 0.2-1.9-0.7-2.4-0.8-0.3-1.9-0.2-2.4 0.7-3.7 6.2-6.8 12.8-9.6 19.8-0.4 0.9 0.1 2 1 2.3zM672.8 340.8c3.3 0.4 6.8 0.9 10.3 1.4h0.2c0.9 0 1.6-0.7 1.7-1.6 0.2-0.9-0.5-1.7-1.4-1.9-3.7-0.5-7-0.9-10.5-1.4-0.9 0-1.7 0.7-1.9 1.6 0 0.9 0.7 1.7 1.6 1.9z" fill="#CECECE" p-id="16692"></path><path d="M335.4 612l104.4 60.3c13.6 7.8 23.6-5 27.1-22.6l22.6-101.9-1.8-1-0.9-0.5-0.1-0.1-3.6-2.1-3.9-2.3-42.9-24.8-3.6-2.1-283.1-163.4-1.1-0.7-0.7-0.4-0.2 0.9-0.2 0.9-22.2 100.1c-1.3 20.3 8.8 43.3 22.4 51.2l0.3 0.2 1.2 0.7L335.4 612z" fill="#F2F2F2" p-id="16693"></path><path d="M713.3 418.3l-108.6 63.1-4.7 2.7-68.1 39.6-12.1 7.1-29.3 17-0.4 0.2-1.1 340.7 340.5-196.6-0.7-208.6-0.4-132.1z" fill="#F9F9F9" p-id="16694"></path></svg>